<?xml version="1.0" standalone="no"?>
<!DOCTYPE svg PUBLIC "-//W3C//DTD SVG 20010904//EN"
 "http://www.w3.org/TR/2001/REC-SVG-20010904/DTD/svg10.dtd">
<svg version="1.0" xmlns="http://www.w3.org/2000/svg"
 width="865.000000pt" height="865.000000pt" viewBox="0 0 865.000000 865.000000"
 preserveAspectRatio="xMidYMid meet">
<metadata>
Created by potrace 1.11, written by Peter Selinger 2001-2013
</metadata>
<g transform="translate(0.000000,865.000000) scale(0.100000,-0.100000)"
fill="#000000" stroke="none">
<path d="M4218 7036 c-1 -2 -66 -6 -143 -10 -77 -3 -156 -9 -175 -11 -153 -23
-249 -40 -335 -62 -513 -127 -940 -367 -1306 -732 -145 -146 -174 -178 -256
-286 -76 -100 -194 -275 -186 -275 3 0 -1 -8 -9 -17 -8 -10 -18 -26 -21 -36
-4 -10 -11 -15 -17 -12 -5 3 -7 0 -4 -9 3 -8 -3 -23 -13 -34 -10 -10 -19 -24
-21 -31 -3 -16 -44 -71 -52 -71 -4 0 -7 -6 -7 -12 0 -7 -14 -36 -31 -65 -17
-28 -28 -54 -25 -57 3 -3 -2 -8 -11 -12 -9 -3 -14 -10 -11 -14 3 -4 -2 -21
-10 -36 -8 -16 -15 -36 -15 -45 0 -24 -11 -30 -29 -16 -14 11 -14 10 -2 -5 8
-11 10 -25 6 -35 -5 -10 -9 -22 -10 -28 -2 -5 -9 -30 -16 -55 -7 -25 -13 -48
-13 -52 -1 -3 -4 -10 -8 -14 -5 -4 -8 -18 -8 -31 0 -13 -3 -23 -7 -23 -5 0 -8
-10 -9 -22 -1 -32 -13 -98 -20 -109 -3 -5 -11 -6 -17 -3 -8 5 -8 3 1 -7 16
-17 16 -43 0 -33 -9 5 -9 2 1 -9 7 -9 10 -17 5 -17 -5 0 -10 -21 -12 -46 -1
-25 -7 -55 -13 -66 -7 -13 -7 -18 -1 -14 6 4 8 -2 5 -14 -3 -11 -10 -17 -17
-13 -6 4 -6 0 2 -9 7 -8 10 -22 8 -29 -3 -8 -7 -52 -10 -97 -2 -46 -7 -86 -10
-89 -3 -4 -1 -12 5 -20 9 -10 8 -13 -1 -13 -7 0 -10 -7 -6 -16 4 -9 1 -24 -6
-32 -9 -11 -9 -14 -1 -9 8 5 11 -2 11 -22 -1 -17 -5 -28 -9 -25 -4 2 -11 0
-14 -6 -4 -6 -3 -10 2 -9 22 4 28 -3 28 -31 0 -16 -3 -30 -7 -30 -4 0 -3 -13
2 -30 5 -19 5 -32 -2 -36 -7 -4 -7 -9 0 -13 5 -3 12 -46 15 -96 3 -49 9 -101
13 -114 4 -15 3 -22 -3 -18 -5 3 -10 0 -10 -8 0 -8 4 -12 9 -9 7 5 10 -9 11
-63 1 -12 5 -20 9 -17 13 8 9 -11 -4 -25 -10 -11 -10 -13 0 -7 13 8 13 6 17
-34 1 -14 5 -33 10 -43 4 -9 5 -28 3 -42 -3 -13 -1 -23 5 -22 5 1 11 -5 12
-13 4 -18 29 -110 44 -160 14 -43 14 -43 -2 -35 -6 4 -4 0 6 -8 10 -8 19 -24
20 -36 1 -12 6 -21 11 -21 5 0 7 -3 4 -6 -4 -3 2 -24 12 -47 10 -23 16 -45 14
-49 -3 -4 -1 -8 5 -8 8 0 24 -34 24 -50 0 -3 8 -20 18 -39 10 -19 16 -38 13
-43 -3 -4 0 -8 6 -8 6 0 8 -4 5 -10 -3 -5 -2 -10 3 -10 6 0 13 -7 16 -16 5
-12 2 -15 -9 -10 -9 3 -13 2 -10 -4 3 -6 13 -10 21 -10 8 0 12 -4 9 -10 -3 -5
-2 -10 3 -10 17 0 32 -46 19 -59 -9 -9 -8 -11 4 -6 12 4 22 -4 36 -32 11 -21
18 -44 15 -51 -2 -7 2 -11 10 -10 8 2 13 -6 12 -19 0 -12 3 -20 7 -17 4 2 18
-10 30 -28 13 -17 17 -28 8 -23 -7 4 -4 -2 9 -14 12 -12 20 -27 16 -32 -3 -5
-2 -9 3 -8 20 3 25 -2 13 -16 -11 -13 -10 -14 4 -9 10 4 18 0 23 -12 7 -20 8
-21 53 -73 17 -19 30 -39 30 -45 0 -6 9 -17 21 -24 12 -8 18 -19 15 -28 -3 -8
-2 -13 3 -10 5 3 19 -8 32 -26 13 -17 41 -47 61 -68 21 -20 35 -40 31 -44 -3
-3 1 -6 10 -6 16 0 22 -12 17 -35 -1 -5 2 -7 6 -2 10 9 53 -31 50 -47 -2 -6
-1 -7 2 -3 2 4 10 3 18 -4 8 -6 11 -16 7 -22 -3 -5 -1 -7 4 -4 15 9 56 -29 47
-44 -4 -8 -3 -9 5 -5 14 9 43 -12 35 -25 -3 -5 -2 -9 3 -8 22 4 35 -2 30 -14
-3 -7 1 -21 9 -32 8 -10 14 -14 14 -9 0 6 -5 15 -12 22 -7 7 -8 12 -2 12 20 0
44 -35 34 -48 -7 -9 -7 -9 2 -2 17 14 31 12 25 -4 -3 -7 0 -13 7 -12 12 1 48
-22 90 -57 11 -10 14 -15 6 -11 -9 4 -12 3 -7 -2 5 -5 16 -9 25 -9 9 0 16 -5
15 -12 -2 -8 4 -10 14 -6 12 5 15 2 10 -9 -4 -11 -1 -14 12 -11 9 2 25 -5 35
-16 11 -12 25 -21 33 -21 7 0 13 -4 13 -10 0 -5 6 -10 13 -10 7 0 22 -8 33
-18 10 -9 32 -23 47 -30 17 -7 25 -17 21 -24 -4 -6 -3 -8 4 -4 16 9 62 -15 62
-33 0 -13 2 -13 9 -2 7 11 14 11 37 -5 16 -11 53 -31 82 -44 28 -13 52 -27 52
-32 0 -4 3 -7 8 -7 24 4 42 -2 36 -13 -4 -7 -3 -8 4 -4 6 3 37 -4 69 -17 32
-12 77 -29 100 -36 23 -8 40 -18 37 -22 -3 -5 1 -6 9 -3 8 3 31 -2 52 -10 21
-9 46 -16 57 -16 15 0 18 -5 14 -16 -5 -13 -3 -14 6 -7 14 12 59 7 68 -6 3 -5
17 -7 32 -5 16 1 35 -4 43 -12 12 -12 15 -12 15 -2 0 10 3 9 10 -2 5 -8 12
-12 15 -8 3 3 23 2 43 -3 20 -5 55 -11 77 -14 100 -11 128 -17 137 -30 5 -7 8
-7 8 0 0 6 23 9 55 7 30 -2 55 -8 55 -14 0 -6 8 -4 17 3 15 12 16 12 8 -1 -7
-12 -6 -13 7 -3 8 7 17 11 20 8 7 -7 269 -7 346 0 47 4 62 3 62 -7 0 -8 5 -6
11 5 6 9 15 15 20 12 5 -4 7 -10 5 -14 -3 -4 1 -8 8 -8 8 0 12 5 10 12 -3 6 4
11 13 12 10 1 25 3 33 5 17 4 20 -21 6 -42 -10 -13 -9 -13 6 -1 10 7 16 17 13
21 -8 14 19 27 70 35 28 5 53 8 56 7 4 -1 22 3 40 8 23 7 37 6 48 -3 10 -8 12
-8 8 -1 -8 13 19 27 34 18 5 -3 9 -1 9 4 0 5 18 12 39 16 22 3 47 9 57 13 10
4 15 2 11 -3 -3 -5 3 -10 13 -10 11 0 16 5 12 15 -4 11 0 13 16 9 12 -4 20 -3
17 2 -3 4 4 10 15 13 11 3 18 2 16 -2 -3 -4 4 -7 14 -7 10 0 16 5 13 11 -2 7
3 12 12 13 8 1 22 3 30 4 8 1 15 5 15 10 0 4 3 7 8 7 4 -1 10 0 15 1 4 1 10 3
15 5 11 3 42 15 92 37 25 11 50 21 55 22 6 2 33 13 60 26 28 13 56 23 63 23 6
0 12 5 12 10 0 5 7 6 16 3 8 -3 13 -2 10 2 -2 4 18 20 46 35 27 15 47 22 43
15 -3 -7 1 -4 9 6 9 11 16 16 16 10 0 -5 4 -4 8 1 14 20 63 46 74 39 7 -4 8
-3 4 4 -4 7 4 17 21 24 15 7 31 17 34 22 4 5 12 5 19 1 8 -5 11 -4 6 3 -11 18
14 25 33 8 15 -13 18 -14 18 -2 0 8 -4 14 -8 13 -4 -1 -7 1 -8 6 -1 4 2 7 6 6
3 0 10 6 15 15 5 9 15 16 22 16 8 0 17 7 20 16 5 13 9 14 22 3 8 -7 14 -8 13
-3 -3 20 1 35 10 30 5 -3 12 1 15 10 6 15 9 15 29 -2 19 -16 20 -17 8 -1 -12
15 -11 21 9 42 13 14 25 23 27 21 4 -4 20 10 95 81 15 14 31 22 37 18 7 -3 8
0 5 9 -4 11 0 16 11 16 9 0 13 4 10 10 -6 10 7 14 32 11 6 -1 14 3 18 9 3 6 0
7 -9 4 -18 -7 -22 11 -6 21 14 9 42 -14 33 -28 -4 -6 -1 -7 6 -3 9 6 8 13 -4
26 -16 18 -15 20 11 47 15 15 27 28 25 28 -1 0 6 18 16 41 21 47 47 76 58 66
5 -4 5 -2 2 5 -4 6 -1 17 6 25 7 7 29 34 49 60 19 26 39 44 42 40 4 -4 7 -2 5
3 -4 18 13 45 25 38 6 -3 8 -3 4 2 -4 4 12 35 36 69 155 219 295 510 379 787
23 73 31 106 53 204 12 51 24 118 30 162 3 26 7 50 9 53 17 29 27 498 13 655
-6 71 -28 212 -43 277 -2 13 -7 34 -9 48 -18 94 -83 312 -121 405 -9 22 -22
54 -28 70 -7 17 -47 100 -89 185 -298 601 -819 1079 -1455 1334 -150 60 -398
132 -518 150 -16 3 -59 10 -95 15 -117 19 -134 20 -265 26 -71 4 -135 8 -142
10 -6 2 -13 2 -15 1z m-288 -875 l0 -248 -32 -8 c-18 -4 -40 -9 -48 -12 -8 -2
-21 -5 -27 -5 -7 -1 -13 -5 -13 -10 0 -5 -6 -8 -12 -7 -7 1 -26 -3 -41 -9 -16
-7 -33 -12 -39 -12 -5 0 -22 -6 -36 -14 -43 -22 -86 -40 -94 -38 -5 1 -8 -3
-8 -10 0 -6 -3 -9 -6 -5 -3 3 -11 1 -18 -4 -6 -5 -45 -32 -87 -59 -79 -52
-249 -219 -249 -245 0 -8 -4 -15 -8 -15 -5 0 -14 -16 -22 -35 -8 -19 -17 -35
-22 -35 -4 0 -7 -3 -6 -7 1 -5 -5 -21 -14 -38 -15 -30 -44 -134 -40 -147 1 -5
-2 -8 -7 -8 -5 0 -7 -14 -4 -31 2 -16 0 -36 -4 -42 -8 -10 -10 -172 -3 -172 1
0 3 -16 5 -35 4 -43 42 -186 58 -214 6 -12 10 -24 9 -28 -1 -5 3 -8 9 -8 5 0
8 -4 5 -9 -4 -5 -3 -11 2 -13 4 -1 20 -23 34 -48 14 -25 51 -73 82 -107 56
-61 195 -173 215 -173 6 0 11 -4 11 -9 0 -5 10 -13 21 -16 12 -4 42 -20 67
-36 25 -16 67 -36 93 -44 27 -9 49 -21 49 -26 0 -6 6 -9 13 -7 6 1 22 -3 35
-10 12 -7 26 -11 31 -8 5 3 14 0 20 -8 7 -8 27 -17 46 -20 19 -4 35 -11 35
-16 0 -5 6 -7 14 -4 8 3 17 1 20 -5 4 -6 13 -8 21 -4 8 3 15 1 15 -5 0 -6 8
-9 18 -8 9 2 24 -1 32 -6 16 -9 204 -58 230 -60 8 0 20 -5 27 -10 7 -5 17 -7
23 -3 5 3 10 1 10 -5 0 -6 4 -9 10 -5 5 3 17 1 27 -4 10 -5 47 -19 83 -31 36
-12 83 -30 104 -40 22 -11 43 -17 48 -14 4 3 8 1 8 -3 0 -5 25 -22 56 -38 62
-33 197 -152 188 -166 -3 -5 0 -9 5 -9 9 0 37 -51 46 -82 2 -5 4 -11 5 -15 1
-5 3 -12 5 -18 1 -5 3 -12 5 -15 7 -15 4 -190 -4 -190 -5 0 -7 -3 -4 -6 15
-14 -77 -172 -105 -183 -6 -2 -20 -13 -32 -25 -12 -12 -46 -32 -76 -46 -29
-14 -57 -29 -60 -34 -4 -5 -12 -5 -18 -2 -6 4 -11 3 -11 -3 0 -5 -8 -8 -17 -6
-10 1 -22 0 -28 -4 -30 -17 -105 -24 -285 -24 -208 0 -217 1 -225 12 -3 5 -17
8 -30 5 -14 -2 -25 -1 -25 4 0 4 -11 9 -26 10 -14 1 -34 7 -45 12 -10 6 -19 7
-19 3 0 -4 -4 -3 -8 2 -4 6 -33 24 -65 39 -80 38 -168 127 -206 206 -17 34
-32 72 -34 84 -2 12 -7 28 -11 37 -4 9 -6 20 -5 25 1 5 -1 21 -5 37 l-8 27
-270 0 -270 0 7 -52 c3 -29 11 -78 17 -108 6 -30 11 -61 11 -67 0 -7 5 -13 10
-13 5 0 7 -6 4 -14 -3 -8 -2 -16 3 -18 5 -2 11 -14 13 -28 3 -24 46 -119 57
-130 3 -3 18 -26 33 -52 15 -26 36 -53 47 -61 11 -8 17 -16 14 -19 -3 -3 16
-26 43 -51 61 -57 163 -140 163 -133 0 4 9 -3 20 -14 11 -11 26 -20 34 -20 8
0 16 -7 20 -15 3 -8 9 -14 13 -13 4 1 26 -7 48 -19 22 -11 63 -28 90 -38 28
-10 56 -23 63 -28 6 -5 12 -7 12 -3 0 4 13 0 30 -9 16 -8 33 -14 37 -13 4 0
29 -5 56 -12 l47 -12 0 -234 c0 -129 -2 -234 -4 -234 -31 0 -209 39 -301 66
-387 114 -737 339 -1010 648 -33 37 -62 72 -64 77 -1 6 -18 27 -37 47 -19 20
-32 43 -29 50 3 7 1 11 -4 8 -5 -3 -26 22 -47 56 -55 87 -62 99 -75 131 -6 15
-15 27 -21 27 -5 0 -7 4 -4 9 4 5 1 11 -4 13 -6 2 -12 11 -13 20 -2 9 -8 22
-14 29 -6 8 -14 25 -18 38 -5 18 -4 22 5 16 9 -5 11 -4 6 4 -4 6 -12 9 -17 6
-9 -6 -13 8 -10 34 2 7 -2 10 -7 7 -6 -3 -12 1 -16 9 -3 8 0 15 7 15 7 0 4 5
-5 11 -10 5 -18 19 -18 29 0 10 -5 22 -11 25 -6 4 -8 13 -5 21 3 8 2 14 -3 14
-7 0 -18 31 -46 130 -13 44 -17 58 -19 71 -1 8 -8 34 -15 59 -10 34 -10 49 -1
63 7 12 8 17 1 12 -12 -7 -16 2 -26 58 -5 31 -3 37 7 31 7 -4 5 1 -4 12 -13
14 -14 23 -6 38 7 12 7 17 0 12 -6 -3 -11 10 -14 34 -2 29 0 40 10 40 10 0 10
4 -2 16 -9 8 -16 23 -16 32 0 15 2 15 10 2 6 -9 10 -10 10 -3 0 6 -4 14 -8 17
-14 9 -14 106 0 124 10 12 10 14 1 8 -15 -9 -18 31 -4 53 6 8 6 24 0 38 -5 12
-5 23 -1 23 4 0 8 15 9 33 2 57 20 175 47 312 9 48 39 155 59 215 11 36 22 67
22 70 6 40 126 289 189 390 44 72 158 227 203 277 15 17 40 44 54 60 56 62
189 180 274 243 103 77 217 150 233 150 6 0 17 6 24 13 31 30 231 115 378 162
88 27 271 69 321 73 l29 2 0 -249z m864 184 c534 -154 1033 -546 1305 -1024
137 -242 213 -462 266 -766 25 -149 25 -474 0 -620 -3 -16 -10 -57 -16 -90
-28 -165 -99 -383 -176 -538 -67 -136 -73 -147 -81 -147 -5 0 -9 -6 -9 -14 0
-21 -74 -126 -84 -120 -5 3 -6 -2 -3 -10 4 -11 0 -16 -11 -16 -9 0 -13 -5 -10
-10 4 -6 1 -18 -6 -26 -11 -14 -14 -13 -25 7 l-12 22 -6 -21 c-4 -12 -11 -22
-15 -22 -5 0 -21 -18 -36 -41 -39 -59 -257 -276 -350 -349 -44 -35 -82 -65
-85 -69 -20 -25 -212 -136 -327 -189 -100 -46 -292 -113 -388 -135 l-60 -13 0
223 c-1 217 0 223 20 223 11 0 41 7 68 15 26 8 47 11 47 8 0 -3 6 0 13 6 8 6
23 12 35 14 12 2 25 6 28 10 4 4 14 7 23 7 21 0 241 110 241 121 0 5 7 9 15 9
21 0 225 203 225 223 0 8 4 17 8 19 12 4 66 120 63 136 -1 6 3 12 10 12 6 0 9
7 5 15 -3 8 -1 15 4 15 5 0 9 8 9 18 0 9 5 42 11 72 15 71 9 372 -7 377 -7 3
-9 11 -6 19 3 8 0 20 -6 28 -6 7 -9 15 -6 18 9 9 -75 198 -87 198 -5 0 -8 7
-8 15 0 8 -4 15 -10 15 -5 0 -10 7 -10 14 0 19 -169 198 -180 191 -4 -3 -10 1
-13 9 -3 8 -27 27 -54 42 -26 16 -50 31 -53 34 -12 14 -139 78 -144 73 -3 -4
-6 -1 -6 6 0 7 -4 9 -10 6 -5 -3 -10 -1 -10 5 0 6 -4 9 -9 5 -5 -3 -12 -1 -15
4 -6 9 -137 62 -153 63 -4 0 -14 4 -20 10 -7 6 -13 7 -13 3 0 -4 -6 -3 -12 3
-7 5 -41 18 -75 27 -35 10 -63 20 -63 24 0 3 -11 7 -25 8 -44 4 -55 6 -55 13
0 3 -8 6 -17 7 -10 0 -29 4 -43 8 -14 4 -37 8 -52 9 -16 0 -28 4 -28 8 0 4
-25 12 -55 19 -30 7 -55 16 -55 21 0 5 -4 6 -10 3 -5 -3 -16 -3 -22 2 -7 4
-17 8 -23 9 -24 4 -40 9 -45 14 -3 3 -43 20 -90 39 -47 19 -87 37 -90 40 -3 3
-23 15 -45 26 -43 21 -182 152 -172 162 3 3 0 11 -7 18 -7 8 -19 41 -26 74
-14 69 -2 188 22 202 7 5 9 9 4 9 -4 0 -1 11 8 25 9 14 14 25 11 25 -9 0 14
26 70 82 50 49 219 143 237 132 5 -3 14 -1 21 4 7 5 20 8 30 7 9 -2 17 0 17 5
0 4 14 7 31 6 16 -1 32 1 35 5 8 13 312 2 379 -14 46 -11 154 -59 173 -78 12
-10 24 -19 27 -19 10 0 65 -57 65 -69 0 -6 5 -11 10 -11 6 0 10 -7 10 -15 0
-7 8 -19 18 -24 9 -6 13 -11 8 -11 -5 0 -3 -7 4 -15 7 -8 9 -15 5 -15 -4 0 -2
-7 5 -15 7 -8 9 -15 5 -15 -4 0 -3 -6 3 -12 12 -16 32 -108 32 -148 l0 -30
269 0 270 0 3 23 c5 32 -31 231 -43 235 -5 2 -7 8 -3 13 3 5 -2 23 -10 40 -9
17 -13 35 -10 40 3 5 1 9 -3 9 -5 0 -15 15 -21 34 -7 19 -24 50 -37 70 -13 20
-21 36 -18 36 4 0 -2 7 -13 15 -10 8 -15 15 -9 15 5 0 -1 7 -13 16 -12 8 -22
20 -22 26 0 17 -179 188 -197 188 -3 0 -20 10 -37 23 -41 31 -151 87 -171 87
-8 0 -15 5 -15 10 0 6 -3 9 -7 9 -5 -1 -11 0 -15 1 -5 1 -12 4 -18 5 -5 1 -11
3 -12 5 -3 2 -19 6 -57 14 -14 3 -27 10 -30 15 -5 8 -7 457 -2 469 0 2 9 1 19
-2 9 -3 57 -17 106 -31z"/>
<path d="M1653 5465 c0 -8 4 -12 9 -9 5 3 6 10 3 15 -9 13 -12 11 -12 -6z"/>
<path d="M1553 5265 c0 -8 4 -12 9 -9 5 3 6 10 3 15 -9 13 -12 11 -12 -6z"/>
<path d="M1495 5161 c-3 -5 -2 -12 3 -15 5 -3 9 1 9 9 0 17 -3 19 -12 6z"/>
<path d="M1496 5103 c-6 -14 -5 -15 5 -6 7 7 10 15 7 18 -3 3 -9 -2 -12 -12z"/>
<path d="M1495 5070 c-3 -5 -1 -10 4 -10 6 0 11 5 11 10 0 6 -2 10 -4 10 -3 0
-8 -4 -11 -10z"/>
<path d="M1460 5050 c-9 -6 -10 -10 -3 -10 6 0 15 5 18 10 8 12 4 12 -15 0z"/>
<path d="M1350 4687 c0 -2 6 -10 14 -16 11 -9 16 -9 22 1 4 7 4 10 -1 6 -4 -4
-14 -3 -22 3 -7 6 -13 9 -13 6z"/>
<path d="M1366 4628 c3 -5 10 -6 15 -3 13 9 11 12 -6 12 -8 0 -12 -4 -9 -9z"/>
<path d="M1376 4428 c3 -5 10 -6 15 -3 13 9 11 12 -6 12 -8 0 -12 -4 -9 -9z"/>
<path d="M1346 4372 c-3 -5 1 -9 9 -9 8 0 12 4 9 9 -3 4 -7 8 -9 8 -2 0 -6 -4
-9 -8z"/>
<path d="M1400 3690 c-9 -6 -10 -10 -3 -10 6 0 15 5 18 10 8 12 4 12 -15 0z"/>
<path d="M1410 3569 c0 -5 5 -7 10 -4 6 3 10 8 10 11 0 2 -4 4 -10 4 -5 0 -10
-5 -10 -11z"/>
<path d="M1470 3496 c0 -2 7 -7 16 -10 8 -3 12 -2 9 4 -6 10 -25 14 -25 6z"/>
<path d="M1496 3432 c-3 -5 1 -9 9 -9 8 0 12 4 9 9 -3 4 -7 8 -9 8 -2 0 -6 -4
-9 -8z"/>
<path d="M1535 3231 c-3 -5 -2 -12 3 -15 5 -3 9 1 9 9 0 17 -3 19 -12 6z"/>
<path d="M1595 3161 c-3 -5 -2 -12 3 -15 5 -3 9 1 9 9 0 17 -3 19 -12 6z"/>
<path d="M1695 2939 c-4 -6 -5 -12 -2 -15 2 -3 7 2 10 11 7 17 1 20 -8 4z"/>
<path d="M1735 2850 c3 -5 8 -10 11 -10 2 0 4 5 4 10 0 6 -5 10 -11 10 -5 0
-7 -4 -4 -10z"/>
<path d="M1776 2572 c-3 -5 1 -9 9 -9 8 0 12 4 9 9 -3 4 -7 8 -9 8 -2 0 -6 -4
-9 -8z"/>
<path d="M1955 2540 c-4 -6 -12 -7 -18 -4 -7 4 -8 3 -4 -1 13 -15 34 -14 34 1
0 17 -4 18 -12 4z"/>
<path d="M2090 2316 c0 -2 7 -7 16 -10 8 -3 12 -2 9 4 -6 10 -25 14 -25 6z"/>
<path d="M6297 2285 c-4 -8 -3 -16 1 -19 4 -3 9 4 9 15 2 23 -3 25 -10 4z"/>
<path d="M6267 2249 c7 -7 15 -10 18 -7 3 3 -2 9 -12 12 -14 6 -15 5 -6 -5z"/>
<path d="M2170 2229 c0 -5 5 -7 10 -4 6 3 10 8 10 11 0 2 -4 4 -10 4 -5 0 -10
-5 -10 -11z"/>
<path d="M6195 2181 c-3 -5 -2 -12 3 -15 5 -3 9 1 9 9 0 17 -3 19 -12 6z"/>
<path d="M2256 2132 c-3 -5 1 -9 9 -9 8 0 12 4 9 9 -3 4 -7 8 -9 8 -2 0 -6 -4
-9 -8z"/>
<path d="M2316 2128 c3 -5 10 -6 15 -3 13 9 11 12 -6 12 -8 0 -12 -4 -9 -9z"/>
<path d="M6115 2129 c-3 -4 2 -6 10 -5 21 3 28 13 10 13 -9 0 -18 -4 -20 -8z"/>
<path d="M2316 2097 c3 -10 9 -15 12 -12 3 3 0 11 -7 18 -10 9 -11 8 -5 -6z"/>
<path d="M2350 2090 c0 -5 5 -10 10 -10 6 0 10 5 10 10 0 6 -4 10 -10 10 -5 0
-10 -4 -10 -10z"/>
<path d="M6135 2070 c3 -5 8 -10 11 -10 2 0 4 5 4 10 0 6 -5 10 -11 10 -5 0
-7 -4 -4 -10z"/>
<path d="M6035 2041 c-3 -5 -2 -12 3 -15 5 -3 9 1 9 9 0 17 -3 19 -12 6z"/>
<path d="M6095 2041 c-3 -5 -2 -12 3 -15 5 -3 9 1 9 9 0 17 -3 19 -12 6z"/>
<path d="M5990 2036 c0 -2 7 -7 16 -10 8 -3 12 -2 9 4 -6 10 -25 14 -25 6z"/>
<path d="M5993 2005 c0 -8 4 -12 9 -9 5 3 6 10 3 15 -9 13 -12 11 -12 -6z"/>
<path d="M6180 2010 c-9 -6 -10 -10 -3 -10 6 0 15 5 18 10 8 12 4 12 -15 0z"/>
<path d="M2416 1991 c-3 -5 2 -15 12 -22 15 -12 16 -12 5 2 -7 9 -10 19 -6 22
3 4 4 7 0 7 -3 0 -8 -4 -11 -9z"/>
<path d="M2515 1950 c3 -5 8 -10 11 -10 2 0 4 5 4 10 0 6 -5 10 -11 10 -5 0
-7 -4 -4 -10z"/>
<path d="M2550 1931 c0 -6 4 -13 10 -16 6 -3 7 1 4 9 -7 18 -14 21 -14 7z"/>
<path d="M5905 1890 c-3 -6 1 -7 9 -4 18 7 21 14 7 14 -6 0 -13 -4 -16 -10z"/>
<path d="M2616 1872 c-3 -4 4 -9 15 -9 23 -2 25 3 4 10 -8 4 -16 3 -19 -1z"/>
<path d="M2655 1830 c-3 -5 -1 -10 4 -10 6 0 11 5 11 10 0 6 -2 10 -4 10 -3 0
-8 -4 -11 -10z"/>
<path d="M2735 1819 c-4 -6 -5 -12 -2 -15 2 -3 7 2 10 11 7 17 1 20 -8 4z"/>
<path d="M5736 1817 c3 -10 9 -15 12 -12 3 3 0 11 -7 18 -10 9 -11 8 -5 -6z"/>
<path d="M5835 1779 c-4 -6 -5 -12 -2 -15 2 -3 7 2 10 11 7 17 1 20 -8 4z"/>
<path d="M5639 1763 c-12 -16 -12 -17 2 -6 9 7 20 9 24 5 5 -4 5 -1 1 6 -9 16
-11 15 -27 -5z"/>
<path d="M5600 1750 c-9 -6 -10 -10 -3 -10 6 0 15 5 18 10 8 12 4 12 -15 0z"/>
<path d="M2914 1730 c0 -13 4 -16 10 -10 7 7 7 13 0 20 -6 6 -10 3 -10 -10z"/>
<path d="M5646 1728 c3 -5 10 -6 15 -3 13 9 11 12 -6 12 -8 0 -12 -4 -9 -9z"/>
<path d="M5716 1723 c-6 -14 -5 -15 5 -6 7 7 10 15 7 18 -3 3 -9 -2 -12 -12z"/>
<path d="M5553 1715 c0 -8 4 -12 9 -9 5 3 6 10 3 15 -9 13 -12 11 -12 -6z"/>
<path d="M2846 1692 c-3 -5 1 -9 9 -9 8 0 12 4 9 9 -3 4 -7 8 -9 8 -2 0 -6 -4
-9 -8z"/>
<path d="M2896 1663 c-6 -14 -5 -15 5 -6 7 7 10 15 7 18 -3 3 -9 -2 -12 -12z"/>
<path d="M5390 1670 c-12 -7 -10 -9 7 -7 12 0 19 5 17 9 -6 10 -6 10 -24 -2z"/>
<path d="M3025 1650 c-3 -6 1 -7 9 -4 18 7 21 14 7 14 -6 0 -13 -4 -16 -10z"/>
<path d="M5455 1641 c-3 -5 -2 -12 3 -15 5 -3 9 1 9 9 0 17 -3 19 -12 6z"/>
<path d="M3139 1628 c-5 -9 -5 -48 -1 -43 6 6 11 45 5 45 -2 0 -4 -1 -4 -2z"/>
<path d="M5291 1621 c-21 -13 -22 -38 -3 -53 13 -11 14 -11 7 2 -14 22 -13 33
5 47 18 14 11 17 -9 4z"/>
<path d="M3094 1605 c3 -23 12 -26 13 -5 1 11 -2 20 -7 20 -4 0 -7 -7 -6 -15z"/>
<path d="M3194 1596 c1 -8 5 -18 8 -22 4 -3 5 1 4 10 -1 8 -5 18 -8 22 -4 3
-5 -1 -4 -10z"/>
<path d="M5330 1589 c0 -5 5 -7 10 -4 6 3 10 8 10 11 0 2 -4 4 -10 4 -5 0 -10
-5 -10 -11z"/>
<path d="M5370 1589 c0 -5 5 -7 10 -4 6 3 10 8 10 11 0 2 -4 4 -10 4 -5 0 -10
-5 -10 -11z"/>
<path d="M3273 1575 c0 -8 3 -13 5 -10 3 3 12 -1 21 -7 10 -8 9 -4 -3 10 -23
26 -23 26 -23 7z"/>
<path d="M2986 1568 c3 -5 10 -6 15 -3 13 9 11 12 -6 12 -8 0 -12 -4 -9 -9z"/>
<path d="M3350 1551 c0 -6 4 -13 10 -16 6 -3 7 1 4 9 -7 18 -14 21 -14 7z"/>
<path d="M5250 1549 c0 -5 5 -7 10 -4 6 3 10 8 10 11 0 2 -4 4 -10 4 -5 0 -10
-5 -10 -11z"/>
<path d="M5166 1528 c3 -5 10 -6 15 -3 13 9 11 12 -6 12 -8 0 -12 -4 -9 -9z"/>
<path d="M5213 1515 c0 -8 4 -12 9 -9 5 3 6 10 3 15 -9 13 -12 11 -12 -6z"/>
<path d="M3290 1516 c0 -2 7 -7 16 -10 8 -3 12 -2 9 4 -6 10 -25 14 -25 6z"/>
<path d="M3335 1510 c3 -5 8 -10 11 -10 2 0 4 5 4 10 0 6 -5 10 -11 10 -5 0
-7 -4 -4 -10z"/>
<path d="M3427 1489 c7 -7 15 -10 18 -7 3 3 -2 9 -12 12 -14 6 -15 5 -6 -5z"/>
<path d="M3467 1489 c7 -7 15 -10 18 -7 3 3 -2 9 -12 12 -14 6 -15 5 -6 -5z"/>
<path d="M3570 1491 c0 -6 4 -13 10 -16 6 -3 7 1 4 9 -7 18 -14 21 -14 7z"/>
<path d="M4890 1492 c0 -5 7 -9 15 -9 8 0 12 4 9 9 -3 4 -9 8 -15 8 -5 0 -9
-4 -9 -8z"/>
<path d="M3373 1459 c-2 -23 3 -25 10 -4 4 8 3 16 -1 19 -4 3 -9 -4 -9 -15z"/>
<path d="M5050 1469 c0 -5 5 -7 10 -4 6 3 10 8 10 11 0 2 -4 4 -10 4 -5 0 -10
-5 -10 -11z"/>
<path d="M3694 1450 c0 -13 4 -16 10 -10 7 7 7 13 0 20 -6 6 -10 3 -10 -10z"/>
<path d="M3486 1448 c3 -5 10 -6 15 -3 13 9 11 12 -6 12 -8 0 -12 -4 -9 -9z"/>
<path d="M3536 1448 c3 -5 10 -6 15 -3 13 9 11 12 -6 12 -8 0 -12 -4 -9 -9z"/>
<path d="M3646 1452 c-2 -4 4 -8 14 -8 10 0 16 4 14 8 -3 4 -9 8 -14 8 -5 0
-11 -4 -14 -8z"/>
<path d="M3760 1456 c0 -2 8 -10 18 -17 15 -13 16 -12 3 4 -13 16 -21 21 -21
13z"/>
<path d="M4916 1448 c3 -5 10 -6 15 -3 13 9 11 12 -6 12 -8 0 -12 -4 -9 -9z"/>
<path d="M3830 1430 c0 -5 5 -10 11 -10 5 0 7 5 4 10 -3 6 -8 10 -11 10 -2 0
-4 -4 -4 -10z"/>
<path d="M4560 1430 c-9 -6 -10 -10 -3 -10 6 0 15 5 18 10 8 12 4 12 -15 0z"/>
<path d="M4625 1430 c-3 -6 1 -7 9 -4 18 7 21 14 7 14 -6 0 -13 -4 -16 -10z"/>
<path d="M4669 1427 c6 -8 7 -18 3 -22 -4 -5 -1 -5 6 -1 10 6 10 11 1 22 -6 8
-14 14 -16 14 -3 0 0 -6 6 -13z"/>
<path d="M4793 1425 c0 -8 4 -12 9 -9 5 3 6 10 3 15 -9 13 -12 11 -12 -6z"/>
<path d="M4455 1420 c-4 -6 -11 -7 -17 -4 -7 4 -8 2 -4 -5 6 -9 11 -9 22 0 14
11 18 19 10 19 -3 0 -8 -5 -11 -10z"/>
<path d="M4873 1415 c0 -8 4 -12 9 -9 5 3 6 10 3 15 -9 13 -12 11 -12 -6z"/>
<path d="M3596 1408 c3 -5 10 -6 15 -3 13 9 11 12 -6 12 -8 0 -12 -4 -9 -9z"/>
<path d="M3750 1410 c0 -5 5 -10 11 -10 5 0 7 5 4 10 -3 6 -8 10 -11 10 -2 0
-4 -4 -4 -10z"/>
<path d="M4093 1403 c0 -9 4 -10 14 -2 7 6 13 12 13 14 0 1 -6 2 -13 2 -8 0
-14 -6 -14 -14z"/>
<path d="M4135 1409 c-3 -4 2 -6 10 -5 21 3 28 13 10 13 -9 0 -18 -4 -20 -8z"/>
<path d="M4473 1395 c0 -8 4 -12 9 -9 5 3 6 10 3 15 -9 13 -12 11 -12 -6z"/>
<path d="M3710 1389 c0 -5 5 -7 10 -4 6 3 10 8 10 11 0 2 -4 4 -10 4 -5 0 -10
-5 -10 -11z"/>
<path d="M4427 1389 c7 -7 15 -10 18 -7 3 3 -2 9 -12 12 -14 6 -15 5 -6 -5z"/>
<path d="M4615 1390 c3 -5 8 -10 11 -10 2 0 4 5 4 10 0 6 -5 10 -11 10 -5 0
-7 -4 -4 -10z"/>
<path d="M4695 1390 c3 -5 8 -10 11 -10 2 0 4 5 4 10 0 6 -5 10 -11 10 -5 0
-7 -4 -4 -10z"/>
<path d="M3875 1371 c-3 -5 -2 -12 3 -15 5 -3 9 1 9 9 0 17 -3 19 -12 6z"/>
<path d="M3955 1369 c-3 -4 2 -6 10 -5 21 3 28 13 10 13 -9 0 -18 -4 -20 -8z"/>
<path d="M4015 1370 c3 -5 8 -10 11 -10 2 0 4 5 4 10 0 6 -5 10 -11 10 -5 0
-7 -4 -4 -10z"/>
<path d="M4135 1370 c3 -5 8 -10 11 -10 2 0 4 5 4 10 0 6 -5 10 -11 10 -5 0
-7 -4 -4 -10z"/>
<path d="M4266 1368 c3 -5 10 -6 15 -3 13 9 11 12 -6 12 -8 0 -12 -4 -9 -9z"/>
<path d="M4175 1361 c-3 -5 -2 -12 3 -15 5 -3 9 1 9 9 0 17 -3 19 -12 6z"/>
<path d="M4413 1355 c0 -8 4 -12 9 -9 5 3 6 10 3 15 -9 13 -12 11 -12 -6z"/>
<path d="M4510 1350 c0 -5 5 -10 11 -10 5 0 7 5 4 10 -3 6 -8 10 -11 10 -2 0
-4 -4 -4 -10z"/>
<path d="M4595 1331 c-3 -5 -2 -12 3 -15 5 -3 9 1 9 9 0 17 -3 19 -12 6z"/>
</g>
</svg>
